<?xml version="1.0" encoding="UTF-8"?>
<!DOCTYPE svg PUBLIC "-//W3C//DTD SVG 1.1//EN" "http://www.w3.org/Graphics/SVG/1.1/DTD/svg11.dtd">
<svg version="1.1" xmlns="http://www.w3.org/2000/svg" xmlns:xlink="http://www.w3.org/1999/xlink" x="0" y="0" width="100" height="100" viewBox="0, 0, 100, 100">
  <g id="Layer_1">
    <path d="M50,83.333 L64.417,58.333 L64.375,58.333 C65.792,55.833 66.667,53.042 66.667,50 C66.667,45 64.417,40.542 60.917,37.5 L80.875,37.5 C82.458,41.375 83.333,45.583 83.333,50 C83.333,68.409 68.409,83.333 50,83.333 M16.667,50 C16.667,43.917 18.292,38.25 21.125,33.333 L35.583,58.333 L35.625,58.333 C38.5,63.292 43.75,66.667 50,66.667 C51.875,66.667 53.667,66.292 55.375,65.708 L45.375,82.958 C29.167,80.708 16.667,66.833 16.667,50 M62.5,50 C62.5,56.904 56.904,62.5 50,62.5 C43.096,62.5 37.5,56.904 37.5,50 C37.5,43.096 43.096,37.5 50,37.5 C56.904,37.5 62.5,43.096 62.5,50 M50,16.667 C62.333,16.667 73.083,23.375 78.833,33.333 L50,33.333 C41.917,33.333 35.208,39.083 33.667,46.708 L23.75,29.5 C29.833,21.708 39.333,16.667 50,16.667 M50,8.333 C26.988,8.333 8.333,26.988 8.333,50 C8.333,73.012 26.988,91.667 50,91.667 C73.012,91.667 91.667,73.012 91.667,50 C91.667,26.988 73.012,8.333 50,8.333 z" fill="#000000"/>
  </g>
</svg>
