<?xml version="1.0" encoding="UTF-8"?>
<!DOCTYPE svg PUBLIC "-//W3C//DTD SVG 1.1//EN" "http://www.w3.org/Graphics/SVG/1.1/DTD/svg11.dtd">
<svg version="1.1" xmlns="http://www.w3.org/2000/svg" xmlns:xlink="http://www.w3.org/1999/xlink" x="0" y="0" width="100" height="100" viewBox="0, 0, 100, 100">
  <g id="Layer_1">
    <path d="M33.333,12.5 C28.731,12.5 25,16.231 25,20.833 L25,37.5 C25,42.102 21.269,45.833 16.667,45.833 L12.5,45.833 L12.5,54.167 L16.667,54.167 C21.269,54.167 25,57.898 25,62.5 L25,79.167 C25,83.769 28.731,87.5 33.333,87.5 L41.667,87.5 L41.667,79.167 L33.333,79.167 L33.333,58.333 C33.333,53.731 29.602,50 25,50 C29.602,50 33.333,46.269 33.333,41.667 L33.333,20.833 L41.667,20.833 L41.667,12.5 M66.667,12.5 C71.269,12.5 75,16.231 75,20.833 L75,37.5 C75,42.102 78.731,45.833 83.333,45.833 L87.5,45.833 L87.5,54.167 L83.333,54.167 C78.731,54.167 75,57.898 75,62.5 L75,79.167 C75,83.769 71.269,87.5 66.667,87.5 L58.333,87.5 L58.333,79.167 L66.667,79.167 L66.667,58.333 C66.667,53.731 70.398,50 75,50 C70.398,50 66.667,46.269 66.667,41.667 L66.667,20.833 L58.333,20.833 L58.333,12.5 L66.667,12.5 z" fill="#000000"/>
  </g>
</svg>
