<?xml version="1.0" encoding="UTF-8"?>
<!DOCTYPE svg PUBLIC "-//W3C//DTD SVG 1.1//EN" "http://www.w3.org/Graphics/SVG/1.1/DTD/svg11.dtd">
<svg version="1.1" xmlns="http://www.w3.org/2000/svg" xmlns:xlink="http://www.w3.org/1999/xlink" x="0" y="0" width="100" height="100" viewBox="0, 0, 100, 100">
  <g id="Layer_1">
    <path d="M25,91.667 C18.096,91.667 12.5,86.07 12.5,79.167 C12.5,76.667 13.25,74.333 14.583,72.375 L37.5,32.542 L37.5,25 C35.199,25 33.333,23.135 33.333,20.833 L33.333,16.667 C33.333,12.064 37.064,8.333 41.667,8.333 L58.333,8.333 C62.936,8.333 66.667,12.064 66.667,16.667 L66.667,20.833 C66.667,23.135 64.801,25 62.5,25 L62.5,32.542 L85.417,72.375 C86.75,74.333 87.5,76.667 87.5,79.167 C87.5,86.07 81.904,91.667 75,91.667 L25,91.667 M20.833,79.167 C20.833,81.468 22.699,83.333 25,83.333 L75,83.333 C77.301,83.333 79.167,81.468 79.167,79.167 C79.167,78.292 78.875,77.458 78.417,76.792 L68.875,60.292 L58.333,70.833 L37.208,49.708 L21.583,76.792 C21.125,77.458 20.833,78.292 20.833,79.167 M54.167,41.667 C51.865,41.667 50,43.532 50,45.833 C50,48.135 51.865,50 54.167,50 C56.468,50 58.333,48.135 58.333,45.833 C58.333,43.532 56.468,41.667 54.167,41.667 z" fill="#000000"/>
  </g>
</svg>
