<?xml version="1.0" encoding="UTF-8"?>
<!DOCTYPE svg PUBLIC "-//W3C//DTD SVG 1.1//EN" "http://www.w3.org/Graphics/SVG/1.1/DTD/svg11.dtd">
<svg version="1.1" xmlns="http://www.w3.org/2000/svg" xmlns:xlink="http://www.w3.org/1999/xlink" x="0" y="0" width="100" height="100" viewBox="0, 0, 100, 100">
  <g id="Layer_1">
    <path d="M33.208,66.667 L20.833,79.167 C19.458,80.417 17.625,81.25 15.625,81.25 C11.598,81.25 8.333,77.985 8.333,73.958 L8.333,72.917 L12.5,42.167 C13.375,32.542 21.417,25 31.25,25 L68.75,25 C78.583,25 86.625,32.542 87.5,42.167 L91.667,72.917 L91.667,73.958 C91.667,77.985 88.402,81.25 84.375,81.25 C82.375,81.25 80.542,80.417 79.167,79.167 L66.792,66.667 L33.208,66.667 M29.167,33.333 L29.167,41.667 L20.833,41.667 L20.833,45.833 L29.167,45.833 L29.167,54.167 L33.333,54.167 L33.333,45.833 L41.667,45.833 L41.667,41.667 L33.333,41.667 L33.333,33.333 L29.167,33.333 M68.75,33.333 C67.024,33.333 65.625,34.732 65.625,36.458 C65.625,38.184 67.024,39.583 68.75,39.583 C70.476,39.583 71.875,38.184 71.875,36.458 C71.875,34.732 70.476,33.333 68.75,33.333 M61.458,40.625 C59.732,40.625 58.333,42.024 58.333,43.75 C58.333,45.476 59.732,46.875 61.458,46.875 C63.184,46.875 64.583,45.476 64.583,43.75 C64.583,42.024 63.184,40.625 61.458,40.625 M76.042,40.625 C74.316,40.625 72.917,42.024 72.917,43.75 C72.917,45.476 74.316,46.875 76.042,46.875 C77.768,46.875 79.167,45.476 79.167,43.75 C79.167,42.024 77.768,40.625 76.042,40.625 M68.75,47.917 C67.024,47.917 65.625,49.316 65.625,51.042 C65.625,52.768 67.024,54.167 68.75,54.167 C70.476,54.167 71.875,52.768 71.875,51.042 C71.875,49.316 70.476,47.917 68.75,47.917 z" fill="#000000"/>
  </g>
</svg>
