<?xml version="1.0" encoding="UTF-8"?>
<!DOCTYPE svg PUBLIC "-//W3C//DTD SVG 1.1//EN" "http://www.w3.org/Graphics/SVG/1.1/DTD/svg11.dtd">
<svg version="1.1" xmlns="http://www.w3.org/2000/svg" xmlns:xlink="http://www.w3.org/1999/xlink" x="0" y="0" width="100" height="100" viewBox="0, 0, 100, 100">
  <g id="Layer_1">
    <path d="M87.5,12.5 L87.5,64.583 C87.5,72.637 80.971,79.167 72.917,79.167 C64.863,79.167 58.333,72.637 58.333,64.583 C58.333,56.529 64.863,50 72.917,50 C75.167,50 77.292,50.5 79.167,51.417 L79.167,26.958 L37.5,35.833 L37.5,72.917 C37.5,80.971 30.971,87.5 22.917,87.5 C14.863,87.5 8.333,80.971 8.333,72.917 C8.333,64.863 14.863,58.333 22.917,58.333 C25.167,58.333 27.292,58.833 29.167,59.75 L29.167,25 L87.5,12.5 z" fill="#000000"/>
  </g>
</svg>
