<?xml version="1.0" encoding="UTF-8"?>
<!DOCTYPE svg PUBLIC "-//W3C//DTD SVG 1.1//EN" "http://www.w3.org/Graphics/SVG/1.1/DTD/svg11.dtd">
<svg version="1.1" xmlns="http://www.w3.org/2000/svg" xmlns:xlink="http://www.w3.org/1999/xlink" x="0" y="0" width="100" height="100" viewBox="0, 0, 100, 100">
  <g id="Layer_1">
    <g>
      <path d="M-0,43.333 L-0,56.679 L50.006,56.679 L50.006,43.333" fill="#000000"/>
      <path d="M1.677,63.34 C7.728,84.98 27.43,99.957 49.9,100 C77.336,100 100,77.619 100,50.006 C100,22.381 77.324,-0 49.9,-0 C27.426,0.044 7.724,15.027 1.677,36.672 L14.586,36.672 C20.293,22.141 34.289,12.564 49.9,12.507 C70.946,12.507 87.812,29.302 87.812,50.006 C87.812,70.674 70.934,87.504 49.9,87.504 C34.19,87.614 20.05,77.993 14.385,63.34" fill="#000000"/>
    </g>
  </g>
</svg>
