<?xml version="1.0" encoding="UTF-8"?>
<!DOCTYPE svg PUBLIC "-//W3C//DTD SVG 1.1//EN" "http://www.w3.org/Graphics/SVG/1.1/DTD/svg11.dtd">
<svg version="1.1" xmlns="http://www.w3.org/2000/svg" xmlns:xlink="http://www.w3.org/1999/xlink" x="0" y="0" width="100" height="100" viewBox="0, 0, 100, 100">
  <g id="Layer_1">
    <g>
      <path d="M56.667,-0 L43.333,-0 L43.333,50.006 L56.679,50.006" fill="#000000"/>
      <path d="M36.672,1.677 C15.027,7.724 0.044,27.426 -0,49.9 C-0,77.336 22.381,100 50.006,100 C77.619,100 100,77.324 100,49.9 C99.957,27.43 84.98,7.728 63.34,1.677 L63.34,14.586 C77.87,20.293 87.447,34.289 87.504,49.9 C87.504,70.946 70.698,87.812 50.006,87.812 C29.326,87.812 12.507,70.934 12.507,49.9 C12.398,34.19 22.019,20.05 36.672,14.385" fill="#000000"/>
    </g>
  </g>
</svg>
