<?xml version="1.0" encoding="UTF-8"?>
<!DOCTYPE svg PUBLIC "-//W3C//DTD SVG 1.1//EN" "http://www.w3.org/Graphics/SVG/1.1/DTD/svg11.dtd">
<svg version="1.1" xmlns="http://www.w3.org/2000/svg" xmlns:xlink="http://www.w3.org/1999/xlink" x="0" y="0" width="100" height="100" viewBox="0, 0, 100, 100">
  <g id="Layer_1">
    <path d="M48.341,0.037 C35.652,0.45 23.594,5.668 14.608,14.636 C-3.182,32.471 -4.933,60.754 10.522,80.647 L21.034,70.135 C11.288,56.115 12.969,37.131 25.026,25.041 C34.665,15.44 48.96,12.224 61.781,16.773 L61.781,29.411 L70.167,21.025 L74.266,16.927 L80.655,10.537 C71.439,3.372 60.008,-0.346 48.341,0.025 z M89.49,19.372 L78.966,29.883 C88.712,43.903 87.031,62.888 74.974,74.978 C65.338,84.575 51.049,87.79 38.23,83.245 L38.23,70.608 L25.734,83.092 L19.345,89.482 C39.252,104.938 67.547,103.183 85.392,85.383 C103.182,67.548 104.933,39.265 89.478,19.372 z" fill="#000000"/>
  </g>
</svg>
